<svg xmlns="http://www.w3.org/2000/svg" viewBox="0 0 800 800"><defs><filter id="b" width="400%" height="400%" x="-100%" y="-100%" color-interpolation-filters="sRGB" filterUnits="objectBoundingBox" primitiveUnits="userSpaceOnUse"><feGaussianBlur width="100%" height="100%" x="0%" y="0%" in="SourceGraphic" result="blur" stdDeviation="17 8"/></filter><filter id="c" width="400%" height="400%" x="-100%" y="-100%" color-interpolation-filters="sRGB" filterUnits="objectBoundingBox" primitiveUnits="userSpaceOnUse"><feGaussianBlur width="100%" height="100%" x="0%" y="0%" in="SourceGraphic" result="blur" stdDeviation="10 17"/></filter><linearGradient id="a" x1="50%" x2="50%" y1="0%" y2="100%"><stop offset="0%" stop-color="hsl(339, 98%, 50%)"/><stop offset="100%" stop-color="hsl(184, 74%, 44%)"/></linearGradient></defs><g fill="none" stroke="url(#a)" stroke-width="24.5"><path d="M388.453 233.461a23.095 23.095 0 0 1 23.094.001l126.906 73.27A23.093 23.093 0 0 1 550 326.73v146.538c0 8.25-4.402 15.875-11.547 20l-126.906 73.27a23.095 23.095 0 0 1-23.094-.001l-126.906-73.27A23.093 23.093 0 0 1 250 473.27V326.731c0-8.25 4.402-15.875 11.547-20l126.906-73.27Z" filter="url(#b)"/><path d="M400.453 233.461a23.095 23.095 0 0 1 23.094.001l126.906 73.27A23.093 23.093 0 0 1 562 326.73v146.538c0 8.25-4.402 15.875-11.547 20l-126.906 73.27a23.095 23.095 0 0 1-23.094-.001l-126.906-73.27A23.093 23.093 0 0 1 262 473.27V326.731c0-8.25 4.402-15.875 11.547-20l126.906-73.27Z" filter="url(#c)" opacity=".25"/><path d="M376.453 233.461a23.095 23.095 0 0 1 23.094.001l126.906 73.27A23.093 23.093 0 0 1 538 326.73v146.538c0 8.25-4.402 15.875-11.547 20l-126.906 73.27a23.095 23.095 0 0 1-23.094-.001l-126.906-73.27A23.093 23.093 0 0 1 238 473.27V326.731c0-8.25 4.402-15.875 11.547-20l126.906-73.27Z" filter="url(#c)" opacity=".25"/><path d="M388.453 233.461a23.095 23.095 0 0 1 23.094.001l126.906 73.27A23.093 23.093 0 0 1 550 326.73v146.538c0 8.25-4.402 15.875-11.547 20l-126.906 73.27a23.095 23.095 0 0 1-23.094-.001l-126.906-73.27A23.093 23.093 0 0 1 250 473.27V326.731c0-8.25 4.402-15.875 11.547-20l126.906-73.27Z"/></g></svg>